<svg width="18" height="18" viewBox="0 0 18 18" fill="none" xmlns="http://www.w3.org/2000/svg">
<path d="M7.53353 0.200195C3.49213 0.200195 0.200195 3.49213 0.200195 7.53353C0.200195 11.5749 3.49213 14.8669 7.53353 14.8669C9.29097 14.8669 10.9049 14.2428 12.1699 13.2068L16.5484 17.5853C16.7323 17.7769 17.0054 17.8541 17.2624 17.7871C17.5194 17.7201 17.7201 17.5194 17.7871 17.2624C17.8541 17.0054 17.7769 16.7323 17.5853 16.5484L13.2068 12.1699C14.2428 10.9049 14.8669 9.29097 14.8669 7.53353C14.8669 3.49213 11.5749 0.200195 7.53353 0.200195ZM7.53353 1.66686C10.7823 1.66686 13.4002 4.28477 13.4002 7.53353C13.4002 10.7823 10.7823 13.4002 7.53353 13.4002C4.28477 13.4002 1.66686 10.7823 1.66686 7.53353C1.66686 4.28477 4.28477 1.66686 7.53353 1.66686Z" fill="#E65E26"/>
</svg>
